# Blender 3.4.1
# www.blender.org
mtllib low_poly_house.mtl
o Cube.001
v -1.000000 -0.508344 24.000290
v -1.000000 10.752599 24.000290
v -1.000000 -0.508344 22.000290
v -1.000000 10.752599 22.000290
v 34.481396 -0.508344 24.000290
v 34.481396 10.752599 24.000290
v 34.481396 -0.508344 22.000290
v 34.481396 10.752599 22.000290
v -1.000000 -0.508344 1.000000
v -1.000000 10.752599 1.000000
v -1.000000 -0.508344 -1.000000
v -1.000000 10.752599 -1.000000
v 34.481396 -0.508344 1.000000
v 34.481396 10.752599 1.000000
v 34.481396 -0.508344 -1.000000
v 34.481396 10.752599 -1.000000
v -1.000000 -0.549689 21.953848
v -1.000000 12.470155 21.953848
v -1.000000 -0.549689 0.984156
v -1.000000 12.470155 0.984156
v 1.000000 -0.549689 21.953848
v 1.000000 12.470155 21.953848
v 1.000000 -0.549689 0.984156
v 1.000000 12.470155 0.984156
v 32.425766 -0.549689 21.953848
v 32.425766 12.470155 21.953848
v 32.425766 -0.549689 0.984156
v 32.425766 12.470155 0.984158
v 34.425766 -0.549689 21.953848
v 34.425766 12.470155 21.953848
v 34.425766 -0.549689 0.984156
v 34.425766 12.470155 0.984158
v 32.425766 -0.549689 13.713468
v 32.425766 12.470155 9.224537
v 34.425766 -0.549689 9.224537
v 34.425766 12.470155 13.713468
v 32.425766 -0.549689 9.224537
v 32.425766 12.470155 13.713468
v 34.425766 -0.549689 13.713468
v 34.425766 12.470155 9.224537
v 32.424637 7.955560 13.713926
v 32.424637 12.466162 13.713926
v 32.424637 7.955560 9.226084
v 32.424637 12.466162 9.226084
v 34.424637 7.955560 13.713926
v 34.424637 12.466162 13.713926
v 34.424637 7.955560 9.226084
v 34.424637 12.466162 9.226084
vn -1.0000 -0.0000 -0.0000
vn -0.0000 -0.0000 -1.0000
vn 1.0000 -0.0000 -0.0000
vn -0.0000 -0.0000 1.0000
vn -0.0000 -1.0000 -0.0000
vn -0.0000 1.0000 -0.0000
vt 0.375000 0.000000
vt 0.375000 1.000000
vt 0.125000 0.750000
vt 0.625000 0.000000
vt 0.625000 1.000000
vt 0.875000 0.750000
vt 0.375000 0.250000
vt 0.125000 0.500000
vt 0.625000 0.250000
vt 0.875000 0.500000
vt 0.375000 0.750000
vt 0.625000 0.750000
vt 0.375000 0.500000
vt 0.625000 0.500000
vt 0.375000 0.000000
vt 0.375000 1.000000
vt 0.125000 0.750000
vt 0.625000 0.000000
vt 0.625000 1.000000
vt 0.875000 0.750000
vt 0.375000 0.250000
vt 0.125000 0.500000
vt 0.625000 0.250000
vt 0.875000 0.500000
vt 0.375000 0.750000
vt 0.625000 0.750000
vt 0.375000 0.500000
vt 0.625000 0.500000
vt 0.375000 0.000000
vt 0.375000 1.000000
vt 0.125000 0.750000
vt 0.625000 0.000000
vt 0.625000 1.000000
vt 0.875000 0.750000
vt 0.375000 0.250000
vt 0.125000 0.500000
vt 0.625000 0.250000
vt 0.875000 0.500000
vt 0.375000 0.750000
vt 0.625000 0.750000
vt 0.375000 0.500000
vt 0.625000 0.500000
vt 0.125000 0.750000
vt 0.375000 1.000000
vt 0.375000 0.000000
vt 0.625000 1.000000
vt 0.625000 0.000000
vt 0.875000 0.750000
vt 0.125000 0.500000
vt 0.375000 0.250000
vt 0.625000 0.250000
vt 0.875000 0.500000
vt 0.375000 0.750000
vt 0.625000 0.750000
vt 0.375000 0.500000
vt 0.625000 0.500000
vt 0.375000 0.062500
vt 0.125000 0.687500
vt 0.625000 0.187500
vt 0.875000 0.562500
vt 0.375000 0.562500
vt 0.625000 0.687500
vt 0.375000 0.187500
vt 0.125000 0.562500
vt 0.625000 0.062500
vt 0.875000 0.687500
vt 0.375000 0.687500
vt 0.625000 0.562500
vt 0.375000 0.000000
vt 0.125000 0.750000
vt 0.625000 0.000000
vt 0.875000 0.750000
vt 0.375000 0.250000
vt 0.125000 0.500000
vt 0.625000 0.250000
vt 0.875000 0.500000
vt 0.375000 0.750000
vt 0.625000 0.750000
vt 0.375000 0.500000
vt 0.625000 0.500000
s 0
f 1/1/1 2/4/1 4/9/1 3/7/1
f 3/7/2 4/9/2 8/14/2 7/13/2
f 7/13/3 8/14/3 6/12/3 5/11/3
f 5/11/4 6/12/4 2/5/4 1/2/4
f 3/8/5 7/13/5 5/11/5 1/3/5
f 8/14/6 4/10/6 2/6/6 6/12/6
f 9/15/1 10/18/1 12/23/1 11/21/1
f 11/21/2 12/23/2 16/28/2 15/27/2
f 15/27/3 16/28/3 14/26/3 13/25/3
f 13/25/4 14/26/4 10/19/4 9/16/4
f 11/22/5 15/27/5 13/25/5 9/17/5
f 16/28/6 12/24/6 10/20/6 14/26/6
f 17/29/1 18/32/1 20/37/1 19/35/1
f 19/35/2 20/37/2 24/42/2 23/41/2
f 23/41/3 24/42/3 22/40/3 21/39/3
f 21/39/4 22/40/4 18/33/4 17/30/4
f 19/36/5 23/41/5 21/39/5 17/31/5
f 24/42/6 20/38/6 18/34/6 22/40/6
f 35/61/4 40/68/4 34/59/4 37/64/4
f 33/58/5 39/67/5 29/53/5 25/43/5
f 26/46/4 25/44/4 29/53/4 30/54/4
f 25/45/1 26/47/1 38/65/1 33/57/1
f 33/58/2 38/66/2 36/62/2 39/67/2
f 31/55/3 32/56/3 40/68/3 35/61/3
f 37/63/1 34/59/1 28/51/1 27/50/1
f 39/67/3 36/62/3 30/54/3 29/53/3
f 27/49/5 31/55/5 35/61/5 37/64/5
f 32/56/2 31/55/2 27/50/2 28/51/2
f 32/56/6 28/52/6 34/60/6 40/68/6
f 36/62/6 38/66/6 26/48/6 30/54/6
f 41/69/1 42/71/1 44/75/1 43/73/1
f 47/79/3 48/80/3 46/78/3 45/77/3
f 43/74/5 47/79/5 45/77/5 41/70/5
f 48/80/6 44/76/6 42/72/6 46/78/6
